<?xml version="1.0" encoding="UTF-8" standalone="no"?>
<!-- Created with Inkscape (http://www.inkscape.org/) -->
<svg id="svg2" xmlns:rdf="http://www.w3.org/1999/02/22-rdf-syntax-ns#" xmlns="http://www.w3.org/2000/svg" height="500" viewBox="0 0 500.00001 500.00001" width="500" version="1.1" xmlns:cc="http://creativecommons.org/ns#" xmlns:dc="http://purl.org/dc/elements/1.1/">
 <metadata id="metadata7">
  <rdf:RDF>
   <cc:Work rdf:about="">
    <dc:format>image/svg+xml</dc:format>
    <dc:type rdf:resource="http://purl.org/dc/dcmitype/StillImage"/>
    <dc:title/>
   </cc:Work>
  </rdf:RDF>
 </metadata>
 <g id="layer2" fill="#aaa" transform="translate(0 -552.36)">
  <path id="rect4139" stroke-width="0" stroke-miterlimit="0" d="m225.29 689.02v227.18h227.18v-227.18h-227.18zm120.33 37.684 12.503 2.6322c-1.3161 4.387-3.0709 8.5547-5.2645 12.503h34.877v10.529c-3.5096 8.3354-7.2386 15.574-11.187 21.716h30.271v44.09h8.5547v12.503h-38.825c7.0193 16.232 20.18 27.638 39.483 34.219l-7.2386 13.819c-21.496-8.3354-36.632-23.909-45.406-46.722-5.2644 17.987-19.084 33.122-41.458 45.406l-10.529-9.2128c19.742-10.09 32.464-22.593 38.167-37.509h-35.535v-12.503h7.8967v-44.09h40.141c4.387-7.0193 8.116-13.819 11.187-20.4h-26.98c-5.2644 7.0193-11.187 13.161-17.768 18.426l-9.2128-9.2128c11.845-9.6515 20.619-21.716 26.322-36.193zm-61.199 0.65805h13.161v27.638h13.161v12.503h-13.161v32.245l15.135-7.2386 2.6322 11.845c-5.7032 3.5096-11.626 6.7999-17.768 9.8708v46.064c0 7.0193-1.0968 11.845-3.2903 14.477-2.1935 2.6322-6.5806 3.9484-13.161 3.9484-5.2644 0-10.09-0.87741-14.477-2.6322l-2.6322-13.161c4.8258 1.7548 9.8708 2.6322 15.135 2.6322 1.7548 0 3.0709-0.65806 3.9483-1.9742 0.87741-0.87741 1.3161-2.8516 1.3161-5.9225v-37.509l-16.451 6.5806-5.2644-13.819 21.716-7.8967v-37.509h-20.4v-12.503h20.4v-27.638zm50.67 58.567v32.245h17.768c2.1935-8.7741 3.9483-19.522 5.2645-32.245h-23.032zm36.193 0c-0.87741 12.284-2.1935 23.032-3.9483 32.245h26.322v-32.245h-22.374z"/>
  <path id="rect4155" stroke-width="0" stroke-miterlimit="1" d="m324.12 588.91h26.954v112.95h-26.954z"/>
  <path id="rect4169" d="m98.497 588.56h252.54v21.782h-252.54z"/>
  <path id="path5631-0" stroke-width="0" fill-rule="evenodd" d="m102.02 972.43v69.884l-34.035-34.035z"/>
  <path id="rect4155-5" stroke-width="0" stroke-miterlimit="1" d="m325.15 904.83h26.954v112.95h-26.954z"/>
  <path id="rect4169-0" d="m99.526 996.25h252.54v21.782h-252.54z"/>
  <path id="path5631-6" stroke-width="0" fill-rule="evenodd" d="m101.68 565.85v69.884l-34.035-34.035z"/>
 </g>
</svg>
